<svg width="30" height="40" viewBox="0 0 30 40" fill="none" xmlns="http://www.w3.org/2000/svg">
<path d="M28.7129 29.2668C29.2649 29.2668 29.7129 28.8188 29.7129 28.2668V19.5468C29.7115 18.4802 28.8462 17.6148 27.7795 17.6135H25.5275V10.8002C25.5222 5.0215 20.8395 0.338829 15.0609 0.333496C9.28221 0.338829 4.59954 5.0215 4.59421 10.8002V17.6068H2.34221C1.27554 17.6082 0.410208 18.4735 0.408875 19.5402V34.7922C0.411541 37.4828 2.59287 39.6642 5.28354 39.6668H24.8382C27.5289 39.6642 29.7102 37.4828 29.7129 34.7922C29.7129 34.2402 29.2649 33.7922 28.7129 33.7922C28.1609 33.7922 27.7129 34.2402 27.7129 34.7922C27.7102 36.3788 26.4249 37.6642 24.8382 37.6668H5.28354C3.69687 37.6642 2.41154 36.3788 2.40887 34.7922L2.34221 19.6068H5.59421C6.14621 19.6068 6.59421 19.1588 6.59421 18.6068V10.8002C6.98354 -0.40117 23.1382 -0.402504 23.5275 10.8002V17.6068H12.3942C11.8422 17.6068 11.3942 18.0548 11.3942 18.6068C11.3942 19.1588 11.8422 19.6068 12.3942 19.6068C14.9502 19.5935 25.3849 19.5562 27.7129 19.5402V28.2668C27.7129 28.8188 28.1609 29.2668 28.7129 29.2668Z" fill="#030522"/>
<path d="M12.8561 28.6359C12.9055 31.5346 17.2175 31.5346 17.2668 28.6359C17.2175 25.7372 12.9055 25.7372 12.8561 28.6359Z" fill="#030522"/>
</svg>
